<?xml version="1.0" ?><svg height="24px" version="1.1" viewBox="0 0 24 24" width="24px" xmlns="http://www.w3.org/2000/svg" xmlns:xlink="http://www.w3.org/1999/xlink"><title/><desc/><g fill="none" fill-rule="evenodd" id="Social-/-24---Social,-gift,-birthday,-present,-box-icon" stroke="none" stroke-linecap="round" stroke-linejoin="round" stroke-width="1"><path d="M20,12 L20,21.236364 C20,21.6581087 19.6816247,22 19.2888889,22 L4.71111112,22 C4.31837529,22 4,21.6581087 4,21.236364 L4,12 L20,12 Z" id="Path" stroke="#000000" stroke-width="2"/><path d="M21.236364,7.727273 C21.6581087,7.727273 22,8.06916428 22,8.490909 L22,10.9999998 C22,11.5522847 21.5522847,11.9999998 21,11.9999998 L12,11.9999998 L3,11.9999998 C2.44771525,11.9999998 2,11.5522847 2,10.9999998 L2,8.490909 C2,8.06916428 2.34189128,7.727273 2.763636,7.727273 L10.7859464,7.727273 C9.54009301,7.72726952 7.67391518,6.74381673 6.96500845,6.03491 C6.04196688,5.11186843 6.04196688,3.61532257 6.96500845,2.692281 C7.88805002,1.76923943 9.38459609,1.76923943 10.3076377,2.692281 C11.0163254,3.40096876 11.999389,5.26621347 12,6.512065 C12.000611,5.26621347 12.9836746,3.40096876 13.6923623,2.692281 C14.6154039,1.76923943 16.11195,1.76923943 17.0349916,2.692281 C17.9580331,3.61532257 17.9580331,5.11186843 17.0349916,6.03491 C16.3260848,6.74381673 14.459907,7.72726952 13.2140536,7.727273 L21.236364,7.727273 Z" id="Path" stroke="#000000" stroke-width="2"/><path d="M12.3038649,7.419309 C12.0898969,7.20534102 12.0001389,6.88594542 12.0000002,6.51 C11.9998611,6.88594542 11.9101031,7.20534102 11.6961351,7.419309 C11.4820003,7.63344384 11.1622733,7.723174 10.7859464,7.723174 L13.2140536,7.723174 C12.8377267,7.723174 12.5179997,7.63344384 12.3038649,7.419309 Z" id="Path" stroke="#000000" stroke-width="2"/><line id="Path" stroke="#000000" stroke-width="2" x1="12" x2="12" y1="12.2456835" y2="22"/></g></svg>