<svg viewBox="0 0 46 46">
		<path d="M34,11c1.512-1.395,2.259-3.006,2.259-4.585C36.26,2.872,33.544,0,30,0c-2.548,0-5.354,3.415-7,6
			c-1.646-2.585-4.452-6-7-6c-3.544,0-6.26,2.872-6.26,6.415c0,1.579,0.748,3.19,2.26,4.585L1,11.007v12.998h4V46h36V24.005h4
			V11.007L34,11z M21,42L9,42.001V24.005L21,24V42z M21,20L5,20.005v-4.999C5.004,15.006,21,15,21,15V20z M13.742,6.34
			c0.039-1.272,1.068-2.301,2.34-2.34c1.134,0.342,3.702,3.538,4.629,5.777C20.803,10.011,21.006,10.455,21,11
			C18.071,11,14.047,7.351,13.742,6.34z M25.288,9.779c0.928-2.241,3.496-5.436,4.63-5.779c1.273,0.039,2.301,1.067,2.34,2.34
			C31.957,7.34,27.982,11,25,11C24.994,10.455,25.197,10.012,25.288,9.779z M37,42.001L25,42V24l12,0.005V42.001z M41,20.005L25,20
			v-5l16,0.006V20.005z"/>
</svg>
