<?xml version="1.0" ?><svg fill="none" height="30" viewBox="0 0 64 64" width="30" xmlns="http://www.w3.org/2000/svg"><path d="M30.8832 49.0014C30.8832 49.0014 30.8836 49.0018 32 48L33.1164 49.0018C32.8319 49.3189 32.426 49.5 32 49.5C31.574 49.5 31.1677 49.3185 30.8832 49.0014Z" /><path clip-rule="evenodd" d="M32 21.5C28.4101 21.5 25.5 24.4101 25.5 28C25.5 31.5899 28.4101 34.5 32 34.5C35.5899 34.5 38.5 31.5899 38.5 28C38.5 24.4101 35.5899 21.5 32 21.5ZM28.5 28C28.5 26.067 30.067 24.5 32 24.5C33.933 24.5 35.5 26.067 35.5 28C35.5 29.933 33.933 31.5 32 31.5C30.067 31.5 28.5 29.933 28.5 28Z"  fill-rule="evenodd"/><path clip-rule="evenodd" d="M30.8832 49.0014L32 48C33.1164 49.0018 33.1174 49.0007 33.1174 49.0007L33.1271 48.9899L33.1548 48.9588C33.1788 48.9318 33.2139 48.8923 33.2593 48.8409C33.35 48.7381 33.4819 48.5878 33.6492 48.3949C33.9835 48.009 34.4595 47.4524 35.0299 46.7642C36.1693 45.3895 37.6919 43.4828 39.2178 41.3611C40.7397 39.2448 42.2864 36.885 43.4587 34.6074C44.606 32.3784 45.5 30.0321 45.5 28C45.5 20.5442 39.4558 14.5 32 14.5C24.5442 14.5 18.5 20.5442 18.5 28C18.5 30.0321 19.394 32.3784 20.5413 34.6074C21.7136 36.885 23.2603 39.2448 24.7822 41.3611C26.3081 43.4828 27.8307 45.3895 28.9701 46.7642C29.5405 47.4524 30.0165 48.009 30.3508 48.3949C30.5181 48.5878 30.65 48.7381 30.7407 48.8409C30.7861 48.8923 30.8212 48.9318 30.8452 48.9588L30.8729 48.9899L30.8832 49.0014ZM21.5 28C21.5 22.201 26.201 17.5 32 17.5C37.799 17.5 42.5 22.201 42.5 28C42.5 29.2816 41.894 31.0922 40.7913 33.2345C39.7136 35.3282 38.2603 37.5542 36.7822 39.6095C35.3081 41.6594 33.8307 43.51 32.7201 44.8497C32.4576 45.1665 32.2159 45.4543 32 45.7089C31.7841 45.4543 31.5424 45.1665 31.2799 44.8497C30.1693 43.51 28.6919 41.6594 27.2178 39.6095C25.7397 37.5542 24.2864 35.3282 23.2087 33.2345C22.106 31.0922 21.5 29.2816 21.5 28Z" fill-rule="evenodd"/></svg>